<svg width="130" height="22" viewBox="0 0 130 22" xmlns="http://www.w3.org/2000/svg">
    <path fill="#bebdbf" d="M34.75,7.09H31.1v9.46H29.36V7.09H25.69V5.55h9.06ZM43.64,15v1.53H36.1v-11h7.4V7.09H37.83v3.13h4.92v1.44H37.83V15Zm1-4A5.91,5.91,0,0,1,45,9a5.44,5.44,0,0,1,1-1.77A5.29,5.29,0,0,1,47.7,6a5,5,0,0,1,2.22-.48,4.6,4.6,0,0,1,2.53.67A4.17,4.17,0,0,1,54,7.89l-1.36.92a3.22,3.22,0,0,0-.5-.81,2.84,2.84,0,0,0-.71-.54,3.19,3.19,0,0,0-.78-.29,4.15,4.15,0,0,0-.79-.08,3,3,0,0,0-1.48.35,3.29,3.29,0,0,0-1.08.92,4.18,4.18,0,0,0-.65,1.28A5.22,5.22,0,0,0,46.43,11a4.68,4.68,0,0,0,.26,1.53,4,4,0,0,0,.72,1.29,3.51,3.51,0,0,0,1.1.89,3,3,0,0,0,1.4.33,3.21,3.21,0,0,0,.81-.1,2.94,2.94,0,0,0,.8-.33,3.19,3.19,0,0,0,.71-.56,2.78,2.78,0,0,0,.54-.82l1.44.82a3.37,3.37,0,0,1-.73,1.09,4.92,4.92,0,0,1-1.06.8,5.68,5.68,0,0,1-1.26.49,4.88,4.88,0,0,1-1.32.17,4.46,4.46,0,0,1-2.09-.49,5.41,5.41,0,0,1-1.63-1.3A5.81,5.81,0,0,1,45.05,13,5.51,5.51,0,0,1,44.67,11Zm20-5.45v11H63V11.7H57.42v4.85H55.68v-11h1.74v4.6H63V5.55Zm14.1,1.88h-3.5v9.12H73.17V7.43H69.66V5.55h9.15ZM80,16.55v-11h4.9a3.23,3.23,0,0,1,1.4.32,3.51,3.51,0,0,1,1.11.84,4,4,0,0,1,.73,1.18,3.67,3.67,0,0,1-.28,3.27,3.07,3.07,0,0,1-1.45,1.26L89,16.56H86.59l-2.31-3.69H82.17v3.69ZM82.17,11h2.68a1.18,1.18,0,0,0,.55-.14,1.33,1.33,0,0,0,.44-.38,1.56,1.56,0,0,0,.3-.57,2.31,2.31,0,0,0,.11-.69,1.94,1.94,0,0,0-.13-.71,1.81,1.81,0,0,0-.33-.57,1.58,1.58,0,0,0-.48-.37,1.17,1.17,0,0,0-.55-.13H82.17ZM98,14.68v1.87H90.32v-11h7.5V7.43H92.46v2.65h4.63v1.73H92.46v2.87Zm3.66-5.18v7.05H99.53v-11h1.65l5.74,7.22V5.57h2.13v11h-1.73Zm9.53,7.05v-11h4a6.14,6.14,0,0,1,2.36.44,4.82,4.82,0,0,1,1.7,1.18,4.88,4.88,0,0,1,1,1.74,6.46,6.46,0,0,1,.34,2.13,6.52,6.52,0,0,1-.38,2.27A4.91,4.91,0,0,1,119.14,15a5.12,5.12,0,0,1-1.71,1.12,6.15,6.15,0,0,1-2.24.39ZM118.45,11a4.82,4.82,0,0,0-.21-1.46,3.43,3.43,0,0,0-.64-1.15,2.9,2.9,0,0,0-1-.74,3.45,3.45,0,0,0-1.38-.26h-1.86v7.25h1.86a3.37,3.37,0,0,0,1.4-.28,3,3,0,0,0,1-.77,3.38,3.38,0,0,0,.62-1.15A4.41,4.41,0,0,0,118.45,11Zm10.21-2.57a2.19,2.19,0,0,0-.39-.29,6.7,6.7,0,0,0-.7-.37,7.16,7.16,0,0,0-.89-.3,4.21,4.21,0,0,0-1-.12,2.28,2.28,0,0,0-1.32.32,1.07,1.07,0,0,0-.43.92.92.92,0,0,0,.16.56,1.5,1.5,0,0,0,.47.4,4.37,4.37,0,0,0,.78.31c.32.09.68.19,1.1.29a14.42,14.42,0,0,1,1.46.47,3.73,3.73,0,0,1,1.12.62,2.43,2.43,0,0,1,.7.89,2.82,2.82,0,0,1,.25,1.28,3.29,3.29,0,0,1-.33,1.51,2.85,2.85,0,0,1-.89,1,3.93,3.93,0,0,1-1.31.57,6.62,6.62,0,0,1-1.54.18,8.14,8.14,0,0,1-2.45-.38,7.27,7.27,0,0,1-2.17-1l.94-1.84a4.54,4.54,0,0,0,.5.36,7.16,7.16,0,0,0,.87.45,6.12,6.12,0,0,0,1.09.38,4.68,4.68,0,0,0,1.24.15c1.18,0,1.77-.37,1.77-1.13a1.07,1.07,0,0,0-.2-.62,1.76,1.76,0,0,0-.58-.43,5.63,5.63,0,0,0-.89-.34l-1.18-.33a9.22,9.22,0,0,1-1.37-.47,3.64,3.64,0,0,1-1-.6A2,2,0,0,1,122,10a2.75,2.75,0,0,1-.2-1.1,3.42,3.42,0,0,1,.31-1.48A3,3,0,0,1,123,6.33a3.9,3.9,0,0,1,1.28-.66,5.23,5.23,0,0,1,1.57-.22,5.93,5.93,0,0,1,2.13.36,7.83,7.83,0,0,1,1.71.86ZM0,.67V21.33H20.66V.67ZM14.65,8.92h-3v7.8H8.88V8.92h-3V6.46h8.74V8.92Z" />
</svg>
