<svg width="130" height="16" viewBox="0 0 130 16" xmlns="http://www.w3.org/2000/svg">
    <path fill="#bebdbf" d="M15.49,3.05V4H13.17v-1A.43.43,0,0,0,13,2.72a.47.47,0,0,0-.33-.14H2.8a.48.48,0,0,0-.34.14.47.47,0,0,0-.14.33V6.36a.47.47,0,0,0,.48.48h9.89a2.8,2.8,0,0,1,2.8,2.8h0V13a2.77,2.77,0,0,1-2.77,2.79H2.8A2.68,2.68,0,0,1,.8,15,2.68,2.68,0,0,1,0,13V12H2.32v1a.47.47,0,0,0,.14.33.48.48,0,0,0,.34.14h9.89a.47.47,0,0,0,.33-.14.41.41,0,0,0,.15-.33V9.64A.45.45,0,0,0,13,9.3a.47.47,0,0,0-.33-.14H2.8a2.69,2.69,0,0,1-2-.82,2.69,2.69,0,0,1-.82-2V3.05a2.69,2.69,0,0,1,.82-2,2.68,2.68,0,0,1,2-.81h9.89a2.68,2.68,0,0,1,2,.81A2.72,2.72,0,0,1,15.49,3.05Zm6-2.79h9.9a2.68,2.68,0,0,1,2,.81,2.69,2.69,0,0,1,.82,2V15.74H31.86V10.32H21v5.42H18.69V3.05A2.75,2.75,0,0,1,21.49.26ZM21,8H31.86V3.05a.47.47,0,0,0-.14-.33.44.44,0,0,0-.34-.14H21.49a.48.48,0,0,0-.47.47V8Zm29.66,4.65V.26H53V15.74H50.23L39.82,3.35V15.74H37.5V.26h2.75ZM59,.26h9.9a2.68,2.68,0,0,1,2,.81,2.69,2.69,0,0,1,.82,2V13A2.77,2.77,0,0,1,69,15.79H59A2.77,2.77,0,0,1,56.21,13v-10a2.69,2.69,0,0,1,.82-2A2.68,2.68,0,0,1,59,.26Zm0,13.16h9.9a.48.48,0,0,0,.34-.14.46.46,0,0,0,.13-.33V3.05a.46.46,0,0,0-.13-.33.48.48,0,0,0-.34-.14H59a.48.48,0,0,0-.34.14.47.47,0,0,0-.14.33V13a.47.47,0,0,0,.14.33A.52.52,0,0,0,59,13.42ZM95,.26h2.46L91.83,15.74H89.94L85.53,3.67,81.14,15.74H79.25L73.61.26h2.47l4.11,11.29L84.3.26h2.48l4.1,11.29Zm7.91,0h9.9a2.68,2.68,0,0,1,2,.81,2.69,2.69,0,0,1,.82,2V15.74h-2.32V10.32H102.44v5.42h-2.33V3.05a2.74,2.74,0,0,1,.82-2A2.71,2.71,0,0,1,102.91.26ZM102.44,8h10.84V3.05a.47.47,0,0,0-.14-.33.44.44,0,0,0-.33-.14h-9.9a.48.48,0,0,0-.47.47Zm20-2.55V1.37h-1.55V.66h3.92v.71h-1.57V5.45Zm2.9,0V.66h1.18l1.21,3.83L128.85.66H130V5.45h-.73v-4l-1.24,4h-.72L126,1.37V5.45Z" />
</svg>
