<svg width="90" height="24" viewBox="0 0 90 24" xmlns="http://www.w3.org/2000/svg">
    <path fill="#bebdbf" d="M18.18,2.46a18.57,18.57,0,0,0,2.26-.08V3A3.88,3.88,0,0,0,19,4.1a7.8,7.8,0,0,0-1.27,2.4L11.46,23.4h-2L1.86,4.86A3.64,3.64,0,0,0,1,3.44,1.72,1.72,0,0,0,0,3V2.38c1.19.06,2.69.09,4.51.09q3,0,4.5-.09V3a4.34,4.34,0,0,0-1.6.27.81.81,0,0,0-.48.83,4.2,4.2,0,0,0,.36,1.39l5.22,13.25L16.15,8.9A11.88,11.88,0,0,0,17,5.28a2.12,2.12,0,0,0-.63-1.72A2.88,2.88,0,0,0,14.49,3V2.38C15.81,2.44,17.05,2.46,18.18,2.46Zm13.07,7.1c1.28,1.29,1.93,3.34,1.93,6.15s-.65,4.83-1.93,6.12a7.22,7.22,0,0,1-5.32,1.93,7.22,7.22,0,0,1-5.32-1.93q-1.93-1.93-1.93-6.12c0-2.8.64-4.84,1.93-6.14a7.17,7.17,0,0,1,5.32-1.94A7.2,7.2,0,0,1,31.25,9.56Zm-7.35.49a16,16,0,0,0-.76,5.66,15.76,15.76,0,0,0,.76,5.62c.51,1.22,1.19,1.84,2,1.84s1.54-.61,2-1.83a15.81,15.81,0,0,0,.75-5.63A16.16,16.16,0,0,0,28,10.05c-.49-1.23-1.17-1.85-2-1.85S24.41,8.82,23.9,10.05ZM42.2,8.41a4,4,0,0,1,2.41-.79,2.65,2.65,0,0,1,1.5.4A2.35,2.35,0,0,1,47,9a3.14,3.14,0,0,1,.29,1.32,2.64,2.64,0,0,1-.64,1.8,2.14,2.14,0,0,1-1.68.69,2.35,2.35,0,0,1-1.59-.51,1.76,1.76,0,0,1-.59-1.38,2.7,2.7,0,0,1,1.3-2.31,1.49,1.49,0,0,0-.36,0,1.43,1.43,0,0,0-.46.07,2.51,2.51,0,0,0-1.37.72,4.34,4.34,0,0,0-1,1.44,4,4,0,0,0-.35,1.63v7.85a2.31,2.31,0,0,0,.66,1.9,3.4,3.4,0,0,0,2.13.53v.62c-2.47-.07-4-.11-4.72-.11s-2,0-4.23.11V22.7a2.87,2.87,0,0,0,1.12-.19,1.14,1.14,0,0,0,.59-.65,3.54,3.54,0,0,0,.18-1.29V11.26a3.57,3.57,0,0,0-.42-2,1.66,1.66,0,0,0-1.47-.61V8c.62.06,1.24.09,1.83.09a19.09,19.09,0,0,0,4.33-.41v2.75A5.23,5.23,0,0,1,42.2,8.41Zm12.28-.06a5.1,5.1,0,0,1,2.75-.72A4.65,4.65,0,0,1,60,8.48a5.5,5.5,0,0,1,1.89,2.57,11.37,11.37,0,0,1,.69,4.24,11.48,11.48,0,0,1-.9,4.84,6.15,6.15,0,0,1-2.43,2.76,6.81,6.81,0,0,1-3.45.87,5,5,0,0,1-3.31-1H52a5.82,5.82,0,0,0-1.89.32,4.13,4.13,0,0,0-1.47.8l-.45-.28a6.11,6.11,0,0,0,.2-1.65V3.74a3.57,3.57,0,0,0-.42-2,1.66,1.66,0,0,0-1.47-.61V.51c.62.06,1.23.09,1.84.09A18.46,18.46,0,0,0,52.69.18V10.45A4.52,4.52,0,0,1,54.48,8.35Zm.41,14.79q3.22,0,3.22-7.43a14.49,14.49,0,0,0-.67-5.23,2.16,2.16,0,0,0-2-1.58,2.61,2.61,0,0,0-1.76.69,3.34,3.34,0,0,0-1,1.88V22.34A3.38,3.38,0,0,0,54.89,23.14Zm13.78-7.56a8.63,8.63,0,0,0,.54,3.26,4.25,4.25,0,0,0,1.43,1.89,3.23,3.23,0,0,0,1.87.6A4.46,4.46,0,0,0,76.43,19l.52.17a7.16,7.16,0,0,1-1.17,2.26,6.1,6.1,0,0,1-2,1.71A5.61,5.61,0,0,1,71,23.8a7.11,7.11,0,0,1-3.58-.87,5.85,5.85,0,0,1-2.4-2.64,9.94,9.94,0,0,1-.86-4.4,10,10,0,0,1,.92-4.53,6.35,6.35,0,0,1,2.56-2.77,7.62,7.62,0,0,1,3.77-.92Q77,7.63,77,14.19H68.7C68.68,14.48,68.67,14.94,68.67,15.58Zm4.15-5.8c-.34-1-.86-1.53-1.55-1.53a2,2,0,0,0-1.76,1.3,10.57,10.57,0,0,0-.86,4.07h4.64A11.57,11.57,0,0,0,72.82,9.78Zm8,11.85a3.08,3.08,0,0,0,2.73,1.45,2.18,2.18,0,0,0,1.5-.53A2,2,0,0,0,85.59,21a2.93,2.93,0,0,0-.37-1.48,4.48,4.48,0,0,0-.93-1.15c-.37-.34-.94-.8-1.69-1.39-.92-.74-1.6-1.33-2.06-1.75a6.16,6.16,0,0,1-1.18-1.51,3.88,3.88,0,0,1-.49-2,3.51,3.51,0,0,1,.69-2.19A4.32,4.32,0,0,1,81.43,8.1,6.85,6.85,0,0,1,84,7.63a7.48,7.48,0,0,1,2,.27,5.34,5.34,0,0,1,1.47.64,1.07,1.07,0,0,0,.52.2c.37,0,.6-.36.7-1.08h.65c-.08,1-.12,2.72-.12,5.2h-.65A7.42,7.42,0,0,0,87.45,9.6a3,3,0,0,0-2.62-1.32,2.07,2.07,0,0,0-1.45.5,1.76,1.76,0,0,0-.57,1.39,2.45,2.45,0,0,0,.67,1.72,10,10,0,0,0,1.6,1.38l1.38,1c.8.61,1.45,1.14,1.93,1.59a6.23,6.23,0,0,1,1.16,1.54,4.22,4.22,0,0,1,.45,2,3.65,3.65,0,0,1-.76,2.29,4.89,4.89,0,0,1-2,1.54,7.16,7.16,0,0,1-2.82.55,5.79,5.79,0,0,1-2.74-.62,11.59,11.59,0,0,0-1.39-.63h-.15c-.31,0-.54.36-.69,1.06H78.8q.12-1.69.12-5.91h.65A9.05,9.05,0,0,0,80.77,21.63Z" />
</svg>
