<svg width="148" height="24" viewBox="0 0 148 24" xmlns="http://www.w3.org/2000/svg">
    <path fill="#bebdbf" d="M98.12,4.92c.15,0,.22.09.22.27V19.73a.22.22,0,0,1-.08.2A.31.31,0,0,1,98,20H96.72a1.13,1.13,0,0,1-.26,0,.52.52,0,0,1-.19-.17L88.85,9.15Q88.78,9,88.7,9c-.08,0-.07.06-.07.14V19.71c0,.19-.1.29-.32.29H86.86c-.21,0-.32-.1-.32-.29V5.23A.33.33,0,0,1,86.61,5a.39.39,0,0,1,.23-.07h1.59a.61.61,0,0,1,.27,0,.49.49,0,0,1,.18.2L96,15.47c.08.09.14.14.18.14a.17.17,0,0,0,.12-.18V5.21a.26.26,0,0,1,.23-.29h1.59Zm4.26.08a.33.33,0,0,1,.23-.07h9.47q.24,0,.24.27V6.48a.27.27,0,0,1-.23.3h-7q-.3,0-.3.27v4.18a.24.24,0,0,0,.21.27h5q.27,0,.27.24V13.1c0,.15-.09.23-.27.23h-5c-.16,0-.24.07-.24.22v4.39a.25.25,0,0,0,0,.17.19.19,0,0,0,.15,0h7.3a.42.42,0,0,1,.22.05.25.25,0,0,1,.06.2V19.7c0,.17-.09.26-.28.26h-9.61a.27.27,0,0,1-.34-.17.26.26,0,0,1,0-.15V5.23A.39.39,0,0,1,102.38,5Zm32.05,0a.36.36,0,0,1,0,.32L130.3,19.65a.59.59,0,0,1-.17.27.61.61,0,0,1-.32.08h-1.54a.46.46,0,0,1-.51-.32L124.71,9c0-.1,0-.15-.08-.15a.53.53,0,0,0-.08.17l-3.09,10.64a.36.36,0,0,1-.15.27A.55.55,0,0,1,121,20h-1.59a.5.5,0,0,1-.51-.32L114.76,5.37a.33.33,0,0,1,0-.14c0-.21.12-.31.36-.31h1.69a.43.43,0,0,1,.27.06.38.38,0,0,1,.14.21l3.1,11c0,.15.08.23.13.23s.08-.07.12-.21l3.13-11c0-.18.19-.26.42-.26h1.47a.46.46,0,0,1,.28.06.37.37,0,0,1,.12.2L129.1,16.3a.16.16,0,0,0,.12.17s.1-.06.12-.17l3.11-11.11c0-.18.18-.26.41-.26h1.28A.28.28,0,0,1,134.43,5.05Zm10,1.86a4.37,4.37,0,0,0-1.92-.38,3.64,3.64,0,0,0-2.25.6,1.92,1.92,0,0,0-.8,1.65c0,.94.66,1.63,2,2.08l3.05,1c2.29.69,3.44,2,3.44,4a3.83,3.83,0,0,1-1.49,3.18,6.56,6.56,0,0,1-4.1,1.15,8.17,8.17,0,0,1-3.41-.67,5.17,5.17,0,0,1-2.3-1.91,1.19,1.19,0,0,1-.08-.2.41.41,0,0,1,.2-.31l1-.69a.6.6,0,0,1,.32-.12.32.32,0,0,1,.25.14A5.7,5.7,0,0,0,140,18a5.87,5.87,0,0,0,4.7-.11,1.84,1.84,0,0,0,.9-1.7,1.7,1.7,0,0,0-.46-1.23,4.23,4.23,0,0,0-1.65-.93l-3.07-1a4.93,4.93,0,0,1-2.47-1.6,3.68,3.68,0,0,1-.82-2.36,4,4,0,0,1,.67-2.27,4.37,4.37,0,0,1,1.88-1.52,6.68,6.68,0,0,1,2.79-.54,7.11,7.11,0,0,1,2.84.55,5.64,5.64,0,0,1,2.08,1.5.29.29,0,0,1,.1.23.22.22,0,0,1-.1.2l-1.16.89a.23.23,0,0,1-.16.06,1,1,0,0,1-.24-.18A4.57,4.57,0,0,0,144.48,6.91ZM54.59.88V23.12H77.84V.88ZM70.51,17.44a5.32,5.32,0,0,1-1.75,1.41,6.08,6.08,0,0,1-5.65-.29,5.45,5.45,0,0,1-2-2.43,9.11,9.11,0,0,1-.71-3.68,8.93,8.93,0,0,1,.7-3.68,5.3,5.3,0,0,1,2-2.39,5.79,5.79,0,0,1,3.12-.82,5.35,5.35,0,0,1,2.36.52A5.18,5.18,0,0,1,70.4,7.47a4,4,0,0,1,.89,1.9.61.61,0,0,1,0,.19v.11a.3.3,0,0,1-.15.05l-1.69.11h0c-.08,0-.13-.07-.17-.2a3.27,3.27,0,0,0-1-1.8,2.85,2.85,0,0,0-1.92-.67,3,3,0,0,0-2.68,1.32,7,7,0,0,0-.92,4,7,7,0,0,0,.92,4,3.14,3.14,0,0,0,2.75,1.31,3.36,3.36,0,0,0,2.06-.6,4.08,4.08,0,0,0,1.34-1.93q0-.12.27-.09l1.29.31c.11,0,.16.13.13.31A4.8,4.8,0,0,1,70.51,17.44ZM41.35,13.59A3.78,3.78,0,0,0,39.18,13H36.71a.37.37,0,0,0-.23.05.23.23,0,0,0-.06.18v4c0,.19.07.28.2.28H39c2.11,0,3.16-.74,3.16-2.2A1.93,1.93,0,0,0,41.35,13.59Zm-4.73-2.16h2.56a3.6,3.6,0,0,0,2-.51,1.77,1.77,0,0,0,.8-1.6,1.9,1.9,0,0,0-.79-1.66A3.74,3.74,0,0,0,39,7.1H36.69q-.27,0-.27.24v3.83C36.42,11.34,36.49,11.43,36.62,11.43ZM27.3.88V23.12H50.55V.88ZM43.09,18.14a7.25,7.25,0,0,1-4,.9h-4.6a.29.29,0,0,1-.2-.07.24.24,0,0,1-.07-.18V5.86a.26.26,0,0,1,.21-.3h4.5a6.84,6.84,0,0,1,3.85.9,2.92,2.92,0,0,1,1.35,2.6,2.87,2.87,0,0,1-.57,1.81,3.81,3.81,0,0,1-1.81,1.19.08.08,0,0,0-.08.09c0,.09,0,.07.08.08a4,4,0,0,1,2,1.14,3,3,0,0,1,.68,2.06A3,3,0,0,1,43.09,18.14ZM11.58,8a.12.12,0,0,0-.12-.13c-.05,0-.1,0-.13.15l-2,5.45v.11c0,.08.06.12.17.12h3.9c.08,0,.14,0,.16-.06a.61.61,0,0,0,0-.19ZM0,.88V23.12H23.25V.88ZM17.38,19.07H15.66a.29.29,0,0,1-.31-.22l-1.17-3.23a.33.33,0,0,0-.07-.13.2.2,0,0,0-.15,0H9a.22.22,0,0,0-.22.15L7.53,18.89c0,.12-.14.18-.31.18H5.82c-.15,0-.22-.07-.22-.21v-.17L10.27,5.88a.51.51,0,0,1,.15-.23.44.44,0,0,1,.25-.06h1.84a.43.43,0,0,1,.45.3l4.6,12.82v.13C17.56,18.9,17.52,19.07,17.38,19.07Z" />
</svg>
