<svg width="84" height="24" viewBox="0 0 84 24" xmlns="http://www.w3.org/2000/svg">
    <path fill="#bebdbf" d="M15.48,14.64a12.29,12.29,0,0,1-.06,1.49,8.14,8.14,0,0,1-2.29,5.27,7.3,7.3,0,0,1-5.4,2,7.32,7.32,0,0,1-5.41-2A8.1,8.1,0,0,1,0,16.13v-3A8,8,0,0,1,2.31,7.8a7.54,7.54,0,0,1,5.42-2,7.42,7.42,0,0,1,5.41,2,8,8,0,0,1,2.28,5.28A13.56,13.56,0,0,1,15.48,14.64ZM11.09,9.9A4.42,4.42,0,0,0,7.73,8.63,4.35,4.35,0,0,0,4.37,9.9,5.42,5.42,0,0,0,3,13.25V16a5.38,5.38,0,0,0,1.38,3.34,4.34,4.34,0,0,0,3.36,1.27,4.34,4.34,0,0,0,3.36-1.27A5.46,5.46,0,0,0,12.46,16a11.85,11.85,0,0,0,.07-1.33,9.25,9.25,0,0,0-.07-1.39A5.5,5.5,0,0,0,11.09,9.9ZM21.83,6a1.24,1.24,0,0,1-.93.38H19a.68.68,0,0,1-.5-.22.67.67,0,0,1-.21-.5.89.89,0,0,1,0-.23L20,1a1.41,1.41,0,0,1,1.38-1h.81a.69.69,0,0,1,.51.21.7.7,0,0,1,.2.5V.78L22.27,5.1A1.78,1.78,0,0,1,21.83,6ZM47.1,7a1.09,1.09,0,0,1,1.1-.78h1.07a.76.76,0,0,1,.78.76v.28l-5,14.93c-.2.61-.51.93-.93.93h-1a.78.78,0,0,1-.61-.24,2.21,2.21,0,0,1-.39-.66L38.2,11.36,34.35,22.14a2.12,2.12,0,0,1-.4.66.79.79,0,0,1-.61.25h-1c-.46,0-.78-.3-.93-.94l-5-14.93V6.92a.75.75,0,0,1,.23-.55.79.79,0,0,1,.56-.23h1.06a1.12,1.12,0,0,1,1.11.78L33,17.79,36.84,7a1,1,0,0,1,1-.78h.72a1,1,0,0,1,1,.78l3.91,10.84ZM66,8.05a8.57,8.57,0,0,1,2,6v.87a.93.93,0,0,1-.87.88H56V16a4.64,4.64,0,0,0,1.32,3.35,4.4,4.4,0,0,0,3.23,1.22,6,6,0,0,0,2.52-.42,5.1,5.1,0,0,0,1.6-1.2,1.51,1.51,0,0,1,.47-.36,1.4,1.4,0,0,1,.57-.1h.93a.92.92,0,0,1,.65.26.77.77,0,0,1,.24.62,3.65,3.65,0,0,1-.94,1.8,6.4,6.4,0,0,1-2.37,1.56,9.52,9.52,0,0,1-3.73.63,7,7,0,0,1-6.28-3.6A9.41,9.41,0,0,1,53.06,16c0-.65-.07-1.15-.07-1.49a12.55,12.55,0,0,1,.07-1.5,8.69,8.69,0,0,1,1.15-3.64A7.63,7.63,0,0,1,64.75,7.05,7.51,7.51,0,0,1,66,8.05Zm-.94,5V13a4.11,4.11,0,0,0-1.22-3.16A4.67,4.67,0,0,0,60.5,8.63a4.57,4.57,0,0,0-3.19,1.19A4.15,4.15,0,0,0,56,13v.1Zm10.21,9.73a.84.84,0,0,1-.61.27H73.45a.84.84,0,0,1-.61-.27.8.8,0,0,1-.26-.61V.88A.8.8,0,0,1,72.8.26.85.85,0,0,1,73.45,0h1.22a.83.83,0,0,1,.61.26.85.85,0,0,1,.26.62V22.17A.88.88,0,0,1,75.27,22.78Zm8.47,0a.81.81,0,0,1-.62.27h-1.2a.89.89,0,0,1-.87-.88V.88A.9.9,0,0,1,81.3.26.85.85,0,0,1,81.92,0h1.2a.85.85,0,0,1,.62.26A.82.82,0,0,1,84,.88V22.17A.78.78,0,0,1,83.74,22.78Z" />
</svg>
