<svg width="98" height="20" viewBox="0 0 98 20" xmlns="http://www.w3.org/2000/svg">
    <path fill="#bebdbf" d="M25.68,14.54h3.16V5.38H25.68v-2h8.64v2H31.16v9.16h3.16v2H25.68ZM39,0V20H59V0ZM51.76,16.5,49,11.38H47V16.5H44.68V3.42H49a8.64,8.64,0,0,1,1.9.2,4.07,4.07,0,0,1,1.53.65,3.19,3.19,0,0,1,1,1.19A4,4,0,0,1,53.8,7.3a3.87,3.87,0,0,1-.71,2.42A4,4,0,0,1,51.26,11l3.12,5.46ZM50.87,5.72a4,4,0,0,0-2.07-.44H47V9.54h1.8A3.36,3.36,0,0,0,50.87,9a2,2,0,0,0,.71-1.68A1.73,1.73,0,0,0,50.87,5.72Zm36.49-.64H85.57v9.34h1.79a2.81,2.81,0,0,0,2.28-1,3.85,3.85,0,0,0,.82-2.57V8.62a3.85,3.85,0,0,0-.82-2.55A2.8,2.8,0,0,0,87.36,5.08ZM78,0V20H98V0ZM93.19,10.87a5.46,5.46,0,0,1-1.61,4.06A5.53,5.53,0,0,1,87.5,16.5H83V3h4.5a5.58,5.58,0,0,1,4.08,1.58,5.46,5.46,0,0,1,1.61,4.06v2.24Zm-21.83-.31H66.79v3.86h4.36l.12-1.61h2.06V16.5H62.64V14.88l1.44-.28V4.9l-1.44-.27V3H73.31V6.7H71.23l-.12-1.61H66.79v3.4h4.57v2.08ZM0,0V20H20V0ZM14.74,5.38h-6v3.7h5.1v2H8.74V16.5H6.42V3.42h8.32Z" />
</svg>
