<svg width="24" height="24" viewBox="0 0 24 24" xmlns="http://www.w3.org/2000/svg">
    <path fill="#6852ed" fill-rule="evenodd" d="M18.69,18.75c-1.72,1.7-4.08,2.75-6.69,2.75-2.35,0-4.51-.86-6.17-2.27l2.49-2.49c1.02,.79,2.29,1.26,3.68,1.26,1.64,0,3.13-.66,4.21-1.73l2.47,2.47Zm-11.43-3.07c-.79-1.02-1.26-2.29-1.26-3.68,0-1.64,.66-3.13,1.73-4.21l-2.47-2.47c-1.7,1.72-2.75,4.08-2.75,6.69,0,2.35,.86,4.51,2.27,6.17l2.49-2.49Zm12.41,1.93c1.15-1.57,1.83-3.51,1.83-5.61,0-2.35-.86-4.51-2.27-6.17l-2.49,2.49c.79,1.02,1.26,2.29,1.26,3.68,0,1.13-.31,2.18-.85,3.09l2.52,2.52ZM12,2.5c2.35,0,4.51,.86,6.17,2.27l-2.49,2.49c-1.02-.79-2.29-1.26-3.68-1.26-1.13,0-2.18,.31-3.09,.85l-2.52-2.52c1.57-1.15,3.51-1.83,5.61-1.83Zm11,9.5c0,6.08-4.92,11-11,11S1,18.08,1,12,5.92,1,12,1s11,4.92,11,11Zm-6.5,0c0,2.49-2.01,4.5-4.5,4.5s-4.5-2.01-4.5-4.5,2.01-4.5,4.5-4.5,4.5,2.01,4.5,4.5Z" />
</svg>
