<svg width="28" height="28" viewBox="0 0 28 28" xmlns="http://www.w3.org/2000/svg">
    <path fill="none" stroke="#000" stroke-linecap="round" stroke-linejoin="round" stroke-width="1.1" d="M12.5,24.5a3.61,3.61,0,0,1-2-3.5c.1711-2.8477,2.0822-3.4973,2-6.5a5.7188,5.7188,0,0,1,3,5,3.9512,3.9512,0,0,0,1.5-2,8.1158,8.1158,0,0,1,.5,4,4.2946,4.2946,0,0,1-2,3" />
    <path fill="none" stroke="#000" stroke-linecap="round" stroke-linejoin="round" d="M24.5,24.5V4.5m-3,20V16a7.5,7.5,0,0,0-15,0v8.5m-3-20v20m-1-20h23m-16,20h9" />
</svg>
