<svg width="28" height="28" viewBox="0 0 28 28" xmlns="http://www.w3.org/2000/svg">
    <path fill="none" stroke="#000" stroke-linecap="round" stroke-miterlimit="10" stroke-width="1.1" d="M12.5,22a1.5,1.5,0,0,0,3,0M1.5,10.5A16.2011,16.2011,0,0,1,14,4.5a16.2011,16.2011,0,0,1,12.5,6M5,14a11.9267,11.9267,0,0,1,9-4,11.9267,11.9267,0,0,1,9,4M12.5,22a1.5,1.5,0,0,0,3,0m-3,0a1.5,1.5,0,0,0,3,0M8.75,17.5A6.59,6.59,0,0,1,14,15a6.59,6.59,0,0,1,5.25,2.5M15.5,22A1.5,1.5,0,1,1,14,20.5,1.498,1.498,0,0,1,15.5,22Z" />
</svg>
