<svg width="28" height="28" viewBox="0 0 28 28" xmlns="http://www.w3.org/2000/svg">
    <path fill="none" stroke="#000" stroke-linecap="round" stroke-miterlimit="10" d="M12.526,7.76h-.01M9.5,12.5c.08,2.48,2.06,5,4.5,5,2.32,0,4.27-2.62,4.5-5M12,17s.2209,1.3856-.5,2c-1.1493.98-2.8889.2905-4.7711,1.5-1.67,1.0731-2.2289,4-2.2289,4m19,0s-.559-2.9269-2.2289-4c-1.8822-1.2095-3.6218-.52-4.7711-1.5-.7209-.6144-.5-2-.5-2m2.5-5.5c.4747-1.7011,1.4845-5.4927-1.484-7.04C14.51,3.1536,12,5,12,5M9,8.5a4.0292,4.0292,0,0,0,.5,4C9.2581,10.28,14.016,8,14.016,8M18.5,12.5a7.4629,7.4629,0,0,0-3.061-6.6338C12.877,3.9661,9,5.4225,9,8.5,9.3734,8.2568,15.137,5.36,18.5,12.5ZM1.3,8.5c0,1.6649-.8,1.6649-.8,3.33,0,1.6675.8,1.6675.8,3.3351S.5,16.8324.5,18.5m4.46-10c0,2-.96,2-.96,4s.96,2,.96,4M24,8.5c0,2-.96,2-.96,4s.96,2,.96,4m3.5-8c0,1.6649-.8,1.6649-.8,3.33,0,1.6675.8,1.6675.8,3.3351s-.8,1.6675-.8,3.3351" />
</svg>
