<svg width="28" height="28" viewBox="0 0 28 28" xmlns="http://www.w3.org/2000/svg">
    <path fill="none" stroke="#000" stroke-linecap="round" stroke-miterlimit="10" d="M16.5,16.5V6a2.5,2.5,0,0,1,5,0m-8,0a2.5,2.5,0,0,0-5,0V16.5m0-3h8m-8-4h8" />
    <path fill="none" stroke="#000" stroke-linecap="round" stroke-miterlimit="10" stroke-width="1.1" d="M2.5,20.3182c1.9157,0,1.9157-1.4637,3.8314-1.4637s1.9151,1.4637,3.83,1.4637,1.9154-1.4637,3.8308-1.4637,1.9159,1.4637,3.8317,1.4637c1.919,0,1.919-1.4637,3.838-1.4637S23.581,20.3182,25.5,20.3182m0,4.1818c-1.919,0-1.919-1.4636-3.8379-1.4636S19.7431,24.5,17.8241,24.5c-1.9158,0-1.9158-1.4636-3.8317-1.4636S12.077,24.5,10.1616,24.5s-1.9151-1.4636-3.83-1.4636S4.4157,24.5,2.5,24.5" />
</svg>
